<svg data-name="Layer 1" viewBox="0 0 1119.6 699" xmlns="http://www.w3.org/2000/svg"><circle cx="292.61" cy="213" r="213" fill="#f2f2f2"/><path d="M85.829 192.34s15.416-.475 20.061-3.783 23.713-7.258 24.866-1.953 23.167 26.388 5.763 26.53-40.44-2.712-45.076-5.536-5.614-15.257-5.614-15.257z" fill="#a8a8a8"/><path d="M136.829 211.28c-17.404.14-40.439-2.71-45.076-5.536-3.531-2.15-4.938-9.869-5.41-13.43-.325.014-.514.02-.514.02s.976 12.433 5.613 15.257 27.672 5.676 45.076 5.536c5.024-.04 6.76-1.828 6.664-4.475-.698 1.6-2.614 2.598-6.353 2.628z" opacity=".2"/><ellipse cx="198.61" cy="424.5" rx="187" ry="25.44" fill="#3f3d56"/><ellipse cx="198.61" cy="424.5" rx="157" ry="21.359" opacity=".1"/><ellipse cx="836.61" cy="660.5" rx="283" ry="38.5" fill="#3f3d56"/><ellipse cx="310.61" cy="645.5" rx="170" ry="23.127" fill="#3f3d56"/><path d="M462.609 626c90 23 263-30 282-90M309.609 259s130-36 138 80-107 149-17 172M184.009 537.28s39.072-10.82 41.477 24.044-32.16 44.783-5.11 51.696" fill="none" stroke="#fe481f" stroke-miterlimit="10" stroke-width="2"/><path d="m778.709 563.24-7.877 50.295s-38.782 20.603-11.513 21.209 155.73 0 155.73 0 24.845 0-14.543-21.815l-7.878-52.719z" fill="#2f2e41"/><path d="M753.829 634.2c6.193-5.51 16.999-11.252 16.999-11.252l7.878-50.295 113.92.107 7.877 49.582c9.185 5.087 14.875 8.987 18.204 11.978 5.059-1.154 10.587-5.443-18.204-21.389l-7.877-52.719-113.92 3.03-7.878 50.295S738.24 630.852 753.83 634.2z" opacity=".1"/><rect x="578.43" y="212.69" width="513.25" height="357.52" rx="18.046" fill="#2f2e41"/><path fill="#f2f2f2" d="M595.7 231.78h478.71v267.84H595.7z"/><circle cx="835.06" cy="223.29" r="3.03" fill="#f2f2f2"/><path d="M1091.709 520.82v31.341a18.043 18.043 0 0 1-18.046 18.046h-477.16a18.043 18.043 0 0 1-18.046-18.046V520.82zM968.98 667.47v6.06H642.97v-4.85l.45-1.21 8.03-21.82h310.86zM1094.409 661.53c-.594 2.539-2.836 5.217-7.902 7.75-18.179 9.09-55.143-2.424-55.143-2.424s-28.48-4.847-28.48-17.573a22.725 22.725 0 0 1 2.497-1.484c7.643-4.044 32.984-14.021 77.918.422a18.739 18.739 0 0 1 8.54 5.597c1.822 2.132 3.25 4.836 2.57 7.712z" fill="#2f2e41"/><path d="M1094.409 661.53c-22.251 8.526-42.084 9.162-62.439-4.975-10.265-7.126-19.591-8.89-26.59-8.756 7.643-4.044 32.984-14.021 77.918.422a18.739 18.739 0 0 1 8.541 5.597c1.82 2.132 3.248 4.836 2.57 7.712z" opacity=".1"/><ellipse cx="1066.5" cy="654.13" rx="7.878" ry="2.424" fill="#f2f2f2"/><circle cx="835.06" cy="545.67" r="11.513" fill="#f2f2f2"/><path opacity=".1" d="M968.98 667.47v6.06H642.97v-4.85l.45-1.21z"/><path fill="#2f2e41" d="M108.61 159h208v242h-208z"/><path fill="#3f3d56" d="M87.609 135h250v86h-250zM87.609 237h250v86h-250zM87.609 339h250v86h-250z"/><path fill="#6c63ff" opacity=".4" d="M271.61 150h16v16h-16z"/><path fill="#6c63ff" opacity=".8" d="M294.61 150h16v16h-16z"/><path fill="#6c63ff" d="M317.61 150h16v16h-16z"/><path fill="#6c63ff" opacity=".4" d="M271.61 251h16v16h-16z"/><path fill="#6c63ff" opacity=".8" d="M294.61 251h16v16h-16z"/><path fill="#6c63ff" d="M317.61 251h16v16h-16z"/><path fill="#6c63ff" opacity=".4" d="M271.61 352h16v16h-16z"/><path fill="#6c63ff" opacity=".8" d="M294.61 352h16v16h-16z"/><path fill="#6c63ff" d="M317.61 352h16v16h-16z"/><circle cx="316.61" cy="538" r="79" fill="#2f2e41"/><path fill="#2f2e41" d="M280.61 600h24v43h-24zM328.61 600h24v43h-24z"/><ellipse cx="300.61" cy="643.5" rx="20" ry="7.5" fill="#2f2e41"/><ellipse cx="348.61" cy="642.5" rx="20" ry="7.5" fill="#2f2e41"/><circle cx="318.61" cy="518" r="27" fill="#fff"/><circle cx="318.61" cy="518" r="9" fill="#3f3d56"/><path d="M239.979 464.53c-6.379-28.568 14.012-57.434 45.544-64.475s62.265 10.41 68.644 38.978-14.519 39.104-46.051 46.145-61.758 7.92-68.137-20.647z" fill="#6c63ff"/><ellipse transform="rotate(-23.171 156.407 637.666)" cx="417.22" cy="611.34" rx="39.5" ry="12.4" fill="#2f2e41"/><ellipse transform="rotate(-23.171 8.409 690.66)" cx="269.22" cy="664.34" rx="39.5" ry="12.4" fill="#2f2e41"/><path d="M362.609 561c0 7.732-19.909 23-42 23s-43-14.268-43-22 20.909-6 43-6 42-2.732 42 5z" fill="#fff"/></svg>