<svg data-name="Layer 1" viewBox="0 0 1074.4 584.23" xmlns="http://www.w3.org/2000/svg"><ellipse cx="540.64" cy="549.31" rx="527.5" ry="34.922" fill="#f2f2f2"/><path d="M520.426 167.01c-85.944 0-147.65 55.139-147.65 183.8 0 145.81 61.707 184.41 147.65 184.41s151.33-42.274 151.33-184.41c0-151.94-65.383-183.8-151.33-183.8zm.565 319.81c-59.527 0-90.626-34.923-90.626-135.92 0-89.112 32.372-136.1 91.899-136.1s91.899 30.868 91.899 136.1c0 98.447-33.645 135.92-93.172 135.92z" fill="#fbbebe"/><path d="M321.316 433.52h-35.534V328.88a20.956 20.956 0 0 0-20.956-20.956H256.5a20.956 20.956 0 0 0-20.956 20.956v104.64h-100.23a11.963 11.963 0 0 1-10.578-17.552l106.08-200.78a20.956 20.956 0 0 0-9.58-28.739l-6.263-2.957a20.956 20.956 0 0 0-27.43 9.07l-129.38 242.03a28.416 28.416 0 0 0-3.355 13.396 28.416 28.416 0 0 0 28.416 28.416h152.32v66.167a25.119 25.119 0 0 0 25.12 25.119 25.119 25.119 0 0 0 25.118-25.12v-66.166h35.534a21.443 21.443 0 0 0 21.443-21.443 21.443 21.443 0 0 0-21.443-21.443zM979.346 433.52h-35.534V328.88a20.956 20.956 0 0 0-20.956-20.956h-8.326a20.956 20.956 0 0 0-20.956 20.956v104.64h-100.23a11.963 11.963 0 0 1-10.578-17.552l106.08-200.78a20.956 20.956 0 0 0-9.58-28.739l-6.263-2.957a20.956 20.956 0 0 0-27.43 9.07l-129.38 242.03a28.416 28.416 0 0 0-3.355 13.396 28.416 28.416 0 0 0 28.416 28.416h152.32v66.167a25.119 25.119 0 0 0 25.12 25.119 25.119 25.119 0 0 0 25.118-25.12v-66.166h35.534a21.443 21.443 0 0 0 21.443-21.443 21.443 21.443 0 0 0-21.443-21.443z" fill="#6c63ff"/><path d="M331.116 421.27h-35.534V316.63a20.956 20.956 0 0 0-20.956-20.956H266.3a20.956 20.956 0 0 0-20.956 20.956v104.64h-100.23a11.963 11.963 0 0 1-10.578-17.552l106.08-200.78a20.956 20.956 0 0 0-9.58-28.739l-6.263-2.957a20.956 20.956 0 0 0-27.43 9.07l-129.38 242.03a28.416 28.416 0 0 0-3.355 13.396 28.416 28.416 0 0 0 28.416 28.416h152.32v66.167a25.119 25.119 0 0 0 25.12 25.119 25.119 25.119 0 0 0 25.118-25.12v-66.166h35.534a21.443 21.443 0 0 0 21.443-21.443 21.443 21.443 0 0 0-21.443-21.443zM997.646 421.27h-35.534V316.63a20.956 20.956 0 0 0-20.956-20.956h-8.326a20.956 20.956 0 0 0-20.956 20.956v104.64h-100.23a11.963 11.963 0 0 1-10.578-17.552l106.08-200.78a20.956 20.956 0 0 0-9.58-28.739l-6.263-2.957a20.956 20.956 0 0 0-27.43 9.07l-129.38 242.03a28.416 28.416 0 0 0-3.355 13.396 28.416 28.416 0 0 0 28.416 28.416h152.32v66.167a25.119 25.119 0 0 0 25.12 25.119 25.119 25.119 0 0 0 25.118-25.12v-66.166h35.534a21.443 21.443 0 0 0 21.443-21.443 21.443 21.443 0 0 0-21.443-21.443zM540.026 155.99c-85.944 0-147.65 55.139-147.65 183.8 0 145.81 61.707 184.41 147.65 184.41s151.33-42.274 151.33-184.41c0-151.94-65.383-183.8-151.33-183.8zm.565 319.81c-59.527 0-90.626-34.923-90.626-135.92 0-89.112 32.372-136.1 91.899-136.1s91.899 30.868 91.899 136.1c0 98.447-33.645 135.92-93.172 135.92z" fill="none" stroke="#3f3d56" stroke-miterlimit="10"/><ellipse cx="573.45" cy="319.62" rx="17" ry="22" fill="none"/></svg>