<svg data-name="Layer 1" viewBox="0 0 1037.9 772.29" xmlns="http://www.w3.org/2000/svg"><defs><linearGradient id="a" x1="521.94" x2="521.94" y1="746.41" y2="22.41" gradientUnits="userSpaceOnUse"><stop stop-color="gray" stop-opacity=".25" offset="0"/><stop stop-color="gray" stop-opacity=".12" offset=".54"/><stop stop-color="gray" stop-opacity=".1" offset="1"/></linearGradient></defs><path d="M104.4 77.33c-6.46 2.68-13.09 6.12-16.64 12.15-3.76 6.37-3.31 14.28-2.61 21.65 6.1 63.92 22.17 131.9-5.58 189.8-13.47 28.09-36 50.6-53.92 76.11S-5.8 434.4 2.52 464.41c10.16 36.67 48.08 57 73.64 85.22 16.73 18.45 28.46 40.87 44.07 60.28s37 36.51 61.92 37.65c35.84 1.65 65-29.3 100.14-36.47 36-7.34 72.25 11.34 101.44 33.7s55.74 49.45 89.75 63.41c37.56 15.43 79.9 13.07 119.44 22.34 36 8.45 69.14 26.42 104.88 36s77.63 9 105.32-15.47c36.09-32 33.25-89 56.3-131.33 21.41-39.33 63.32-62.81 91.53-97.58 50.76-62.58 49.1-158.23 6-226.29s-121.17-109.27-201-120c-36-4.83-73.07-4.17-107.68-15.16C555.63 131.31 500.5 25.97 405.92 4.05 345.8-9.86 287.33 14.23 236.12 43.88c-44.45 25.74-85.46 14.26-131.72 33.45Z" fill="#6c63ff" opacity=".1"/><circle cx="521.94" cy="384.41" r="362" fill="url(#a)"/><circle cx="521.94" cy="384.41" r="356" fill="#6c63ff"/><circle cx="521.94" cy="384.41" r="283" fill="#dde1ec"/><path fill="#535461" opacity=".3" d="M513.94 151.41h16v250h-16z"/><g opacity=".1"><path d="M538.94 378.41h226v20h-226zM370.103 321.302l9.279-17.718 142.201 74.468-9.278 17.717z"/><circle cx="521.94" cy="388.41" r="30"/></g><path fill="#535461" d="M538.94 374.41h226v20h-226zM379.447 299.607l142.202 74.468-9.279 17.717-142.201-74.467z"/><circle cx="521.94" cy="384.41" r="30" fill="#535461"/><path d="M260.92 418.41c0-156.3 126.7-283 283-283a282.56 282.56 0 0 1 226.16 112.84c-48.16-87.52-141.16-146.84-248.16-146.84-156.3 0-283 126.7-283 283a281.74 281.74 0 0 0 56.87 170.16 281.71 281.71 0 0 1-34.87-136.16Z" opacity=".1"/></svg>